<?xml version="1.0" standalone="no"?>
<!DOCTYPE svg PUBLIC "-//W3C//DTD SVG 20010904//EN"
 "http://www.w3.org/TR/2001/REC-SVG-20010904/DTD/svg10.dtd">
<svg version="1.0" xmlns="http://www.w3.org/2000/svg"
 width="448.000000pt" height="452.000000pt" viewBox="0 0 448.000000 452.000000"
 preserveAspectRatio="xMidYMid meet">
<metadata>
Created by potrace 1.16, written by Peter Selinger 2001-2019
</metadata>
<g transform="translate(0.000000,452.000000) scale(0.100000,-0.100000)"
fill="#000000" stroke="none">
<path d="M1826 4403 c-10 -3 -107 -46 -215 -97 -133 -63 -226 -114 -291 -161
-117 -84 -132 -97 -237 -214 -90 -101 -153 -212 -173 -308 -6 -29 -25 -72 -41
-95 -16 -24 -29 -56 -29 -73 -1 -56 -38 -260 -55 -300 -13 -30 -16 -54 -10
-95 3 -30 10 -122 15 -205 4 -82 14 -170 21 -195 21 -78 23 -355 3 -503 -20
-154 -22 -374 -6 -602 11 -160 11 -160 60 -275 28 -63 66 -162 87 -220 20 -58
44 -114 54 -125 10 -11 47 -65 81 -120 91 -144 224 -319 281 -368 64 -55 163
-115 214 -128 23 -7 124 -11 240 -11 149 1 216 -3 264 -15 125 -30 223 2 381
124 128 99 131 102 218 233 38 58 119 168 181 245 190 238 242 328 291 502 16
60 35 159 41 219 5 60 19 143 29 184 10 41 26 134 35 205 11 84 25 148 40 182
46 101 70 213 83 383 7 79 16 121 36 170 52 121 56 149 56 382 0 262 -14 332
-84 438 -24 36 -60 97 -81 135 -39 74 -111 170 -165 220 -18 17 -59 64 -91
107 -56 73 -162 168 -247 222 -23 14 -99 51 -170 81 -169 72 -254 85 -567 84
-126 -1 -238 -3 -249 -6z"/>
</g>
</svg>
